# This file uses centimeters as units for non-parametric coordinates.

mtllib floor.mtl
g default
v -10.000000 -4.146150 -10.000000
v -10.000000 -4.146150 20.000000
v 10.000000 -4.146150 20.000000
v 10.000000 -4.146150 20.000000
v 10.000000 -4.146150 -10.000000
v -10.000000 -4.146150 -10.000000
v -10.000000 -10.000000 -2.000000
v 10.000000 -10.000000 -2.000000
v 10.000000 10.000000 -2.000000
v 10.000000 10.000000 -2.000000
v -10.000000 10.000000 -2.000000
v -10.000000 -10.000000 -2.000000
v -10.000000 5.000000 -10.000000
v -10.000000 5.000000 20.000000
v 10.000000 5.000000 20.000000
v 10.000000 5.000000 20.000000
v 10.000000 5.000000 -10.000000
v -10.000000 5.000000 -10.000000
vn 0.000000 1.000000 0.000000
vn 0.000000 1.000000 0.000000
vn 0.000000 1.000000 0.000000
vn 0.000000 1.000000 0.000000
vn 0.000000 1.000000 0.000000
vn 0.000000 1.000000 0.000000
vn 0.000000 0.000000 1.000000
vn 0.000000 0.000000 1.000000
vn 0.000000 0.000000 1.000000
vn 0.000000 0.000000 1.000000
vn 0.000000 0.000000 1.000000
vn 0.000000 0.000000 1.000000
vn 0.000000 1.000000 0.000000
vn 0.000000 1.000000 0.000000
vn 0.000000 1.000000 0.000000
vn 0.000000 1.000000 0.000000
vn 0.000000 1.000000 0.000000
vn 0.000000 1.000000 0.000000
s off
g initialShadingGroup Mesh
f 1//1 2//2 3//3
f 4//4 5//5 6//6
f 7//7 8//8 9//9
f 10//10 11//11 12//12
f 13//13 14//14 15//15
f 16//16 17//17 18//18
