# This file uses centimeters as units for non-parametric coordinates.

mtllib plate3.mtl
g default
v 4.000000 -3.730960 2.700460
v 4.000000 -3.433780 1.745640
v -4.000000 -3.433780 1.745640
v -4.000000 -3.433780 1.745640
v -4.000000 -3.730960 2.700460
v 4.000000 -3.730960 2.700460
vn 0.000000 0.954821 0.297180
vn 0.000000 0.954821 0.297180
vn 0.000000 0.954821 0.297180
vn 0.000000 0.954821 0.297181
vn 0.000000 0.954821 0.297181
vn 0.000000 0.954821 0.297181
s off
g initialShadingGroup plate3_Mesh
f 1//1 2//2 3//3
f 4//4 5//5 6//6
