# This file uses centimeters as units for non-parametric coordinates.

mtllib plate2.mtl
g default
v 4.000000 -3.288250 1.369720
v 4.000000 -2.838560 0.476536
v -4.000000 -2.838560 0.476536
v -4.000000 -2.838560 0.476536
v -4.000000 -3.288250 1.369720
v 4.000000 -3.288250 1.369720
vn 0.000000 0.893185 0.449690
vn 0.000000 0.893185 0.449690
vn 0.000000 0.893185 0.449690
vn 0.000000 0.893185 0.449690
vn 0.000000 0.893185 0.449690
vn 0.000000 0.893185 0.449690
s off
g initialShadingGroup plate2_Mesh
f 1//1 2//2 3//3
f 4//4 5//5 6//6
