# This file uses centimeters as units for non-parametric coordinates.

mtllib plate1.mtl
g default
v 4.000000 -2.706510 0.256090
v 4.000000 -2.083750 -0.526323
v -4.000000 -2.083750 -0.526323
v -4.000000 -2.083750 -0.526323
v -4.000000 -2.706510 0.256090
v 4.000000 -2.706510 0.256090
vn 0.000000 0.782413 0.622760
vn 0.000000 0.782413 0.622760
vn 0.000000 0.782413 0.622760
vn 0.000000 0.782413 0.622760
vn 0.000000 0.782413 0.622760
vn 0.000000 0.782413 0.622760
s off
g initialShadingGroup plate1_Mesh
f 1//1 2//2 3//3
f 4//4 5//5 6//6
